<?xml version="1.0" encoding="utf-8"?>
<!-- Generator: Adobe Illustrator 26.0.3, SVG Export Plug-In . SVG Version: 6.00 Build 0)  -->
<svg version="1.1" id="Layer_1" xmlns="http://www.w3.org/2000/svg" xmlns:xlink="http://www.w3.org/1999/xlink" x="0px" y="0px"
	 viewBox="0 0 1920 1020" style="enable-background:new 0 0 1920 1020;" xml:space="preserve">
<style type="text/css">
	.st0{fill:#FEE7D0;}
	.st1{fill:#FFEDDB;}
</style>
<g>
	<path class="st0" d="M7.06,586.75c0-190.55,0-381.09,0-571.64c1.94-1.21,3.69-0.21,5.42,0.38c27.65,9.46,52.28,22.98,74.47,39.82
		c24.92,18.92,46.72,40.32,68.47,61.78c16.51,16.3,33.17,32.51,51.15,47.64c24.25,20.41,50.89,38.2,82.12,50.53
		c15.72,6.21,31.96,11.15,48.6,15.33c18.53,4.65,37.44,7.4,56.47,9.7c15.54,1.87,31.24,2.43,46.92,2.9c8,0.24,15.95,1.25,23.99,0.88
		c24.45-1.14,48.93-1.45,73.38-2.98c19.65-1.23,39.25-2.93,58.82-4.67c17.51-1.56,35.07-2.82,52.54-4.82
		c14.28-1.63,28.71-2.1,43.07-3.05c15.16-1,30.35-1.69,45.54-2.22c12.31-0.43,24.66-0.68,36.98,0.29c8.93,0.71,17.9,0.41,26.87,1
		c45.05,2.94,88.89,10.17,130.53,25.55c29.19,10.78,55.57,25.39,79.62,43c15.29,11.19,29.92,22.99,44.39,34.96
		c20.87,17.28,41.85,34.52,65.14,49.5c24.42,15.71,51,28.14,79.59,37.56c31.48,10.37,64.1,16.35,97.71,18.43
		c28.91,1.79,57.54-0.29,86.01-4.82c36.47-5.81,71.7-15.46,107.13-24.5c29.61-7.56,59.21-15.27,89.71-19.87
		c19.24-2.9,38.63-4.69,58.22-5.54c28.99-1.26,57.6,0.85,86.06,4.99c34.15,4.97,66.79,14.08,98.36,26.18
		c23.17,8.88,44.42,20.6,66.1,31.68c8.93,4.56,18.03,8.86,27.09,13.24c2.33,1.13,4.35,2.38,4.06,5.02c0,186.64,0,373.28,0,559.91
		c0,1.22-0.04,2.45,0,3.67c0.1,2.45-1.5,2.27-3.41,1.65c-5.53-2.1-9.61-5.84-13.86-9.29c-22.87-18.53-43.73-38.64-64.31-58.98
		c-20.68-20.43-41.66-40.66-65.5-58.54c-25.08-18.81-52.9-33.81-84.28-44.03c-33.8-11.01-68.78-17.13-104.78-19.55
		c-17.88-1.2-35.8-2.26-53.7-2.15c-18.38,0.12-36.77,1.19-55.15,2.01c-24.01,1.07-47.92,2.98-71.76,5.33
		c-21.64,2.13-43.35,3.68-64.98,5.85c-11.29,1.13-22.65,1.6-33.99,2.2c-13.26,0.7-26.51,1.61-39.77,2.06
		c-16.64,0.56-33.31,0.73-49.96-0.16c-10.54-0.56-21.08-1.13-31.61-1.85c-23.55-1.61-46.69-5.09-69.54-10.12
		c-33.78-7.44-65.5-18.87-94.6-35.36c-16.56-9.39-32-19.98-46.75-31.32c-26.61-20.44-51.34-42.61-78.59-62.46
		c-33.31-24.25-70.52-42.73-112.39-54.52c-28.36-7.98-57.35-12.76-87.02-14.34c-18.68-0.99-37.4-0.27-56.1,1.63
		c-36.32,3.7-71.29,12.05-106.17,20.89c-25.64,6.5-51.12,13.45-76.99,19.29c-26.07,5.88-52.5,10.31-79.36,12.33
		c-19.29,1.45-38.66,1.58-58.07,0.59c-17-0.87-33.89-2.41-50.53-5.15c-45.81-7.57-89.37-20.53-129.36-41.28
		c-41.86-21.71-84.67-42.01-127.65-62.05C9.82,588.57,8.28,587.87,7.06,586.75z"/>
	<path class="st1" d="M1921.11,461.78c0.32,0,0.63,0.01,0.94,0.02c0,189.46,0,378.91,0,568.37c-1.9-0.77-3.84-1.5-4.79-3.27
		c1.04,0.3,2.08,0.6,3.15,0.91c0.96-0.37,0.63-1.14,0.66-1.75c0.06-1.22,0.02-2.45,0.02-3.67c0-185.1,0-370.19,0-555.29
		C1921.09,465.32,1921.1,463.55,1921.11,461.78z"/>
</g>
</svg>
