<?xml version="1.0" encoding="utf-8"?>
<!-- Generator: Adobe Illustrator 26.0.3, SVG Export Plug-In . SVG Version: 6.00 Build 0)  -->
<svg version="1.1" id="Layer_1" xmlns="http://www.w3.org/2000/svg" xmlns:xlink="http://www.w3.org/1999/xlink" x="0px" y="0px"
	 viewBox="0 0 1366 1371" style="enable-background:new 0 0 1366 1371;" xml:space="preserve">
<style type="text/css">
	.st0{fill:#DFC6DC;}
</style>
<path class="st0" d="M1366,43c-53.71-6.68-92.42,54.18-146.67,30.15c-16.16-7.16-29.73-18.95-43.66-29.83
	c-13.93-10.88-29.03-21.24-46.37-24.69c-51.46-10.23-66.93,56.16-111.69,65.44c-32.62,6.76-60.95-21.15-91.6-34.21
	c-34.56-14.72-76.83-9.48-106.77,13.22c-10.5,7.96-19.76,18-31.9,23.11c-25.65,10.8-52.82-3.5-74.56-16.66
	c-15.8-9.56-31.33-20.05-48.88-25.77c-43.07-14.02-78.86,16.98-114.63,35.98c-39.44,20.95-73.55,17.91-112.94-2.76
	c-46.66-24.49-83.59-40.95-134.68-18.98c-39.12,16.82-76.4,46.15-121.41,40.44c-23.98-3.04-45.37-15.9-67.68-25.2
	C72.21,56.42,25.7,63.51-0.87,100.9l0.37,133.6l1365-6L1366,43z"/>
<polygon class="st0" points="-0.5,206.77 0.5,1369.35 1362,1370 1364.5,199 "/>
</svg>
