<?xml version="1.0" encoding="utf-8"?>
<!-- Generator: Adobe Illustrator 26.0.3, SVG Export Plug-In . SVG Version: 6.00 Build 0)  -->
<svg version="1.1" id="Layer_1" xmlns="http://www.w3.org/2000/svg" xmlns:xlink="http://www.w3.org/1999/xlink" x="0px" y="0px"
	 viewBox="0 0 303 284" style="enable-background:new 0 0 303 284;" xml:space="preserve">
<style type="text/css">
	.st0{fill:#FFFFFF;stroke:#000000;stroke-width:0.75;stroke-miterlimit:10;}
	.st1{stroke:#000000;stroke-width:0.75;stroke-miterlimit:10;}
	.st2{fill:#FFFFFF;}
	.st3{fill:#2C2C2C;}
	.st4{fill:#DE3D38;}
	.st5{fill:none;stroke:#000000;stroke-width:6;stroke-linecap:round;stroke-linejoin:round;stroke-miterlimit:10;}
</style>
<g>
	<path class="st0" d="M147.5,11.7c-1,0-1.7,0.5-2.4,1.1c-1,0.9-1.7,2-2.3,3.2c-0.1,0.2-0.5,0.5-0.7,0.5c-1.3,0.1-2.5,0.5-3.5,1.3
		c-2.1,1.5-3.2,3.5-3.1,6c0,0.5,0.1,1,0.2,1.5c0,0.3,0,0.6-0.4,0.8c-1.2,0.7-2.5,1.3-3.6,2c-1.5,1-3.1,1.9-4.6,3.1
		c-1.6,1.3-3.2,2.7-4.7,4.1c-2.8,2.7-5.1,5.7-6.8,9.1c-1.4,2.8-2.4,5.6-2.6,8.7c-0.2,1.7-0.1,3.5,0.2,5.2c0.2,1,0.4,2,1.1,2.9
		c1.4,1.9,2.8,3.8,4.2,5.7c1.4,1.8,2.8,3.7,4.1,5.5c1.2,1.6,2.4,3.2,3.6,4.8c1.7,2.3,3.5,4.6,5.2,6.9c1.3,1.7,2.5,3.4,3.8,5.1
		c0.9,1.2,1.8,2.3,2.6,3.4c0.3,0.4,0.5,0.7,0.9,1c1,0.8,2.1,0.9,3.4,0.5c15.3-5.4,30.7-10.9,46-16.3c0.3-0.1,0.6-0.1,0.8-0.3
		c0.5-0.3,0.9-0.7,1.3-1.1c0.8-1.1,0.5-2.3,0.5-3.5c0-2.2-0.2-4.4-0.3-6.6c0-0.9,0-1.8-0.1-2.7c0-1-0.1-2-0.1-3c0-1,0-2.1-0.1-3.1
		c-0.1-1.7-0.1-3.3-0.2-5c-0.1-1.5-0.1-3.1-0.2-4.6c-0.1-2.1-0.1-4.1-0.2-6.2c-0.1-1.9-0.1-3.8-0.2-5.7c0-1.1,0-2.1-0.5-3.1
		c-0.5-0.9-0.9-1.9-1.5-2.7c-1.5-2.3-3.5-4.2-5.8-5.7c-4.5-2.9-9.5-4.3-14.8-4.8c-2.3-0.2-4.6-0.3-7-0.2c-2.4,0.1-4.8,0.4-7.2,0.8
		c-0.9,0.2-1.8,0.3-2.6,0.5c-0.5,0.1-0.8-0.1-1-0.6c-0.3-0.9-1-1.6-1.8-2.2c-0.9-0.7-2-1.2-3.1-1.4c-0.8-0.2-0.8-0.3-0.5-1
		c0.6-1.1,1.4-2.1,2.5-2.9C146.5,12.4,147,12.1,147.5,11.7z"/>
	<path class="st1" d="M147.5,11.7c-0.5,0.3-1,0.7-1.5,1c-1.1,0.7-1.8,1.8-2.5,2.9c-0.4,0.7-0.3,0.8,0.5,1c1.2,0.2,2.2,0.7,3.1,1.4
		c0.8,0.6,1.4,1.2,1.8,2.2c0.2,0.5,0.5,0.7,1,0.6c0.9-0.2,1.8-0.4,2.6-0.5c2.4-0.4,4.8-0.7,7.2-0.8c2.3-0.1,4.6-0.1,7,0.2
		c5.3,0.5,10.4,2,14.8,4.8c2.3,1.5,4.3,3.4,5.8,5.7c0.6,0.9,1,1.8,1.5,2.7c0.5,1,0.5,2,0.5,3.1c0.1,1.9,0.2,3.8,0.2,5.7
		c0.1,2.1,0.1,4.1,0.2,6.2c0,1.5,0.1,3.1,0.2,4.6c0.1,1.7,0.1,3.3,0.2,5c0,1,0,2.1,0.1,3.1c0,1,0.1,2,0.1,3c0,0.9,0,1.8,0.1,2.7
		c0.1,2.2,0.2,4.4,0.3,6.6c0,1.2,0.4,2.4-0.5,3.5c-0.3,0.4-0.8,0.8-1.3,1.1c-0.2,0.2-0.6,0.2-0.8,0.3c-15.3,5.4-30.7,10.9-46,16.3
		c-1.3,0.5-2.4,0.3-3.4-0.5c-0.3-0.3-0.6-0.7-0.9-1c-0.9-1.1-1.8-2.3-2.6-3.4c-1.3-1.7-2.5-3.4-3.8-5.1c-1.7-2.3-3.5-4.6-5.2-6.9
		c-1.2-1.6-2.4-3.2-3.6-4.8c-1.4-1.8-2.8-3.7-4.1-5.5c-1.4-1.9-2.8-3.8-4.2-5.7c-0.7-0.9-0.9-1.9-1.1-2.9c-0.3-1.7-0.4-3.4-0.2-5.2
		c0.3-3.1,1.2-5.9,2.6-8.7c1.7-3.4,4-6.4,6.8-9.1c1.5-1.4,3-2.8,4.7-4.1c1.4-1.1,3-2.1,4.6-3.1c1.2-0.7,2.4-1.4,3.6-2
		c0.4-0.2,0.4-0.4,0.4-0.8c-0.1-0.5-0.2-1-0.2-1.5c0-2.5,1-4.5,3.1-6c1.1-0.8,2.2-1.2,3.5-1.3c0.2,0,0.6-0.3,0.7-0.5
		c0.6-1.2,1.3-2.3,2.3-3.2C145.7,12.2,146.5,11.7,147.5,11.7z M114.5,60.7c0.4,0.5,0.7,0.9,1.1,1.3c0.9,1.3,1.9,2.6,2.8,3.9
		c1.3,1.7,2.5,3.3,3.8,5c1.1,1.5,2.3,3.1,3.4,4.6c0.7,1,1.5,1.9,2.2,2.9c1,1.3,1.9,2.5,2.8,3.8c0.8,1,1.5,2,2.3,3
		c0.8,1,1.5,2,2.3,3.1c1.1,1.4,2.2,2.8,3.3,4.3c0.9,1.2,2,1.6,3.5,1.1c5.1-1.8,10.3-3.6,15.4-5.5c10.3-3.6,20.5-7.3,30.8-10.9
		c1.4-0.5,2-1.7,2-2.8c-0.1-1.9-0.1-3.8-0.2-5.8c-0.1-3.4-0.2-6.8-0.4-10.3c-0.1-2.6-0.2-5.2-0.3-7.7c-0.1-1.8-0.2-3.7-0.2-5.6
		c0-1.4,0-2.8-0.1-4.3c-0.1-1.8-0.1-3.5-0.2-5.3c0-0.4-0.1-0.8-0.1-1.2c-1.2,0.2-2.1,0.9-2.7,1.8c-0.7,1.2-1.3,2.5-2,3.7
		c-1.1,2.4-4.5,3.7-7,2.6c-1.1-0.5-2.3-1.1-3.4-1.6c-2.2-1-5,0-6.2,2c-0.6,1.1-1.2,2.3-1.7,3.4c-0.9,1.8-2.5,2.6-4.4,2.9
		c-0.5,0.1-1.1,0.1-1.6-0.1c-1.3-0.5-2.7-1-3.9-1.7c-2.3-1.1-5.3-0.4-6.6,1.8c-0.7,1.2-1.2,2.4-1.9,3.7c-0.7,1.3-1.8,2.1-3.1,2.6
		c-1.4,0.5-2.9,0.4-4.2-0.2c-0.9-0.4-1.8-0.9-2.7-1.3c-2-1-4.7-0.5-6.1,1.3c-0.7,0.9-1.1,2.1-1.7,3.1c-0.4,0.7-0.7,1.5-1.3,2.1
		c-1.5,1.6-4,2.4-6.3,1.4c-1.1-0.5-2.2-1.1-3.4-1.5C117.2,60.1,115.9,60,114.5,60.7z M180.7,42.2c0.4-0.2,0.8-0.3,1.2-0.6
		c1.2-0.8,1.8-2.1,2.4-3.4c0.7-1.7,1.6-3.3,3.5-4.1c0.9-0.4,0.8-0.6,0.4-1.4c-0.1-0.1-0.2-0.3-0.2-0.4c-1.1-2.6-2.9-4.6-5-6.3
		c-3.6-2.9-7.8-4.6-12.3-5.5c-3.5-0.7-7-1-10.5-0.8c-1.6,0.1-3.2,0.2-4.8,0.5c-1.7,0.2-3.4,0.6-5.1,0.8c-0.5,0.1-0.7,0.4-0.6,0.8
		c0.1,0.4,0.1,0.9,0.1,1.4c0,1.5-0.5,2.9-1.5,4.1c-1.9,2.4-4.4,3.3-7.4,2.7c-2-0.4-3.5-1.4-4.5-3.1c-0.4-0.7-0.5-0.7-1.2-0.3
		c-1.9,1.2-3.9,2.3-5.8,3.5c-1.7,1.2-3.3,2.4-4.9,3.7c-2,1.7-3.8,3.5-5.2,5.6c-1.2,1.7-2.3,3.4-3.3,5.3c-1,1.8-1.7,3.8-2.1,5.8
		c-0.3,1.7-0.5,3.3-0.4,5c0.1,1.2,0.3,2.3,0.5,3.5c0.1,0.9,0.4,1,1.3,0.8c0.9-0.3,1.8-0.3,2.6,0c1.3,0.5,2.5,1.1,3.8,1.6
		c1,0.4,2,0.7,3.1,0.5c1.8-0.3,3.1-1.4,3.9-3c0.4-0.9,0.9-1.8,1.3-2.8c0.6-1.3,1.7-2.2,3.1-2.7c1.7-0.6,3.4-0.3,5,0.5
		c0.9,0.5,1.9,0.9,2.9,1.3c1.5,0.5,3,0.2,4.3-0.7c1.1-0.8,1.7-2,2.2-3.2c0.7-1.8,1.6-3.4,3.6-4.2c1.1-0.4,2.2-0.7,3.2-0.4
		c1.4,0.4,2.7,1.1,4,1.7c2.3,1.1,5.2,0.4,6.6-1.8c0.5-0.9,1-1.8,1.4-2.7c0.9-2.1,2.5-3.4,4.8-3.8c0.6-0.1,1.3-0.1,1.9,0.1
		c1.3,0.5,2.6,1.1,3.8,1.6C178,42.5,179.3,42.7,180.7,42.2z M142.3,17c-0.4,0-0.6,0-0.9,0c-2.9,0.5-5.3,3.1-5.5,5.9
		c-0.2,2.3,0.6,4.1,2.4,5.5c2.2,1.7,5.1,1.9,7.4,0.5c2.4-1.4,3.6-3.6,3.4-6.3c-0.1-2.8-2.8-5.5-5.7-5.7c-0.4,0-0.7,0.1-0.7,0.5
		c-0.1,0.9-0.3,1.9-0.5,2.8c0,0.2-0.1,0.3-0.2,0.4c-0.1-0.1-0.3-0.2-0.4-0.4c-0.1-0.1-0.1-0.2,0-0.3c0.1-0.6,0.1-1.1,0.2-1.7
		C142,17.9,142.1,17.5,142.3,17z"/>
	<path class="st0" d="M114.5,60.7c1.4-0.7,2.6-0.6,3.8-0.1c1.1,0.5,2.2,1,3.4,1.5c2.2,1,4.7,0.2,6.3-1.4c0.5-0.6,0.9-1.3,1.3-2.1
		c0.6-1,1-2.2,1.7-3.1c1.4-1.8,4-2.3,6.1-1.3c0.9,0.4,1.8,0.9,2.7,1.3c1.4,0.6,2.8,0.7,4.2,0.2c1.3-0.4,2.4-1.3,3.1-2.6
		c0.6-1.2,1.1-2.5,1.9-3.7c1.4-2.2,4.3-2.9,6.6-1.8c1.3,0.6,2.6,1.2,3.9,1.7c0.5,0.2,1.1,0.2,1.6,0.1c1.9-0.3,3.5-1.2,4.4-2.9
		c0.6-1.2,1.1-2.3,1.7-3.4c1.2-2,4-3,6.2-2c1.1,0.5,2.3,1.1,3.4,1.6c2.5,1.1,5.9-0.2,7-2.6c0.6-1.3,1.2-2.5,2-3.7
		c0.6-0.9,1.4-1.6,2.7-1.8c0,0.4,0.1,0.8,0.1,1.2c0.1,1.8,0.1,3.5,0.2,5.3c0,1.4,0,2.8,0.1,4.3c0.1,1.8,0.1,3.7,0.2,5.6
		c0.1,2.6,0.2,5.2,0.3,7.7c0.1,3.4,0.3,6.8,0.4,10.3c0.1,1.9,0.1,3.8,0.2,5.8c0,1.1-0.6,2.3-2,2.8c-10.3,3.6-20.5,7.3-30.8,10.9
		c-5.1,1.8-10.3,3.6-15.4,5.5c-1.5,0.5-2.6,0.1-3.5-1.1c-1-1.5-2.2-2.9-3.3-4.3c-0.8-1-1.5-2-2.3-3.1c-0.8-1-1.5-2-2.3-3
		c-0.9-1.3-1.9-2.5-2.8-3.8c-0.7-1-1.5-1.9-2.2-2.9c-1.1-1.5-2.3-3.1-3.4-4.6c-1.3-1.7-2.5-3.3-3.8-5c-0.9-1.3-1.9-2.6-2.8-3.9
		C115.3,61.6,114.9,61.2,114.5,60.7z"/>
	<path class="st0" d="M180.7,42.2c-1.4,0.5-2.7,0.3-4-0.3c-1.3-0.6-2.5-1.2-3.8-1.6c-0.6-0.2-1.2-0.2-1.9-0.1
		c-2.3,0.3-3.9,1.7-4.8,3.8c-0.4,0.9-0.8,1.8-1.4,2.7c-1.4,2.2-4.3,2.9-6.6,1.8c-1.3-0.6-2.6-1.2-4-1.7c-1-0.3-2.1-0.1-3.2,0.4
		c-2,0.8-2.9,2.5-3.6,4.2c-0.5,1.2-1.1,2.4-2.2,3.2c-1.3,0.9-2.8,1.2-4.3,0.7c-1-0.3-2-0.8-2.9-1.3c-1.6-0.8-3.3-1.1-5-0.5
		c-1.3,0.5-2.4,1.4-3.1,2.7c-0.5,0.9-0.9,1.8-1.3,2.8c-0.8,1.7-2.1,2.7-3.9,3c-1.1,0.2-2.1,0-3.1-0.5c-1.2-0.6-2.5-1.2-3.8-1.6
		c-0.8-0.3-1.7-0.2-2.6,0c-0.9,0.3-1.1,0.1-1.3-0.8c-0.2-1.2-0.4-2.3-0.5-3.5c-0.1-1.7,0.1-3.3,0.4-5c0.4-2,1.1-4,2.1-5.8
		c1-1.8,2.1-3.6,3.3-5.3c1.5-2.1,3.3-3.9,5.2-5.6c1.5-1.3,3.2-2.6,4.9-3.7c1.9-1.3,3.8-2.4,5.8-3.5c0.7-0.4,0.8-0.3,1.2,0.3
		c1,1.7,2.5,2.8,4.5,3.1c3,0.6,5.5-0.4,7.4-2.7c1-1.2,1.4-2.6,1.5-4.1c0-0.4,0-0.9-0.1-1.4c-0.1-0.5,0.1-0.8,0.6-0.8
		c1.7-0.3,3.4-0.6,5.1-0.8c1.6-0.2,3.2-0.4,4.8-0.5c3.6-0.2,7.1,0,10.5,0.8c4.5,0.9,8.8,2.6,12.3,5.5c2.1,1.7,4,3.7,5,6.3
		c0.1,0.1,0.1,0.3,0.2,0.4c0.5,0.8,0.5,1-0.4,1.4c-1.9,0.8-2.7,2.4-3.5,4.1c-0.5,1.3-1.2,2.5-2.4,3.4
		C181.5,41.8,181.1,42,180.7,42.2z M181.4,31.6c0-0.1,0-0.2,0.1-0.2c-1.7-1.8-3.6-3.4-5.9-4.6c-4.3-2.3-9-3.3-14-2.9
		c-0.2,0-0.4,0.2-0.5,0.3c0.2,0.1,0.4,0.2,0.6,0.2c0.9,0,1.9-0.2,2.8-0.1c2.5,0.1,5,0.5,7.3,1.3c3.5,1.3,6.6,3.2,9.1,5.8
		C181,31.6,181.2,31.6,181.4,31.6z"/>
	<path class="st0" d="M142.3,17c-0.1,0.5-0.2,0.9-0.3,1.3c-0.1,0.6-0.2,1.1-0.2,1.7c0,0.1,0,0.2,0,0.3c0.1,0.1,0.2,0.3,0.4,0.4
		c0.1-0.2,0.1-0.3,0.2-0.4c0.2-0.9,0.3-1.9,0.5-2.8c0.1-0.4,0.3-0.5,0.7-0.5c2.9,0.2,5.5,2.9,5.7,5.7c0.1,2.7-1,4.9-3.4,6.3
		c-2.3,1.4-5.3,1.2-7.4-0.5c-1.8-1.4-2.6-3.2-2.4-5.5c0.2-2.8,2.6-5.4,5.5-5.9C141.6,17,141.9,17,142.3,17z"/>
	<path class="st1" d="M181.4,31.6c-0.2,0-0.4,0-0.5-0.1c-2.5-2.7-5.6-4.6-9.1-5.8c-2.3-0.8-4.8-1.2-7.3-1.3c-0.9,0-1.9,0.1-2.8,0.1
		c-0.2,0-0.4-0.2-0.6-0.2c0.2-0.1,0.4-0.3,0.5-0.3c5-0.4,9.6,0.5,14,2.9c2.2,1.2,4.2,2.7,5.9,4.6C181.5,31.4,181.5,31.5,181.4,31.6z
		"/>
</g>
<g>
	<path class="st2" d="M143.4,62.3c-0.4,4-0.7,7.9-1.1,11.8c-0.1,1.3-0.4,2.6-1.3,3.6c-0.2,0.3-0.7,0.6-0.9,0.5
		c-1.4-0.4-1.8,0.9-2.5,1.8c1.5,0.2,3,0,4.5,0.2c1.4,0.2,2.2-0.5,2.9-1.7c-1.1-0.1-2.1-0.1-3.2-0.2c1.6-0.9,2.3-2.4,2.5-4.2
		c0.2-2.3,0.4-4.6,0.7-6.9c0.2-1.6,0.3-3.2,0.5-4.9c0.8,0,1.5,0,2.2,0c1.2-0.1,2.5,0,3.6-0.3c2.2-0.5,4-1.7,5-4.2
		c0.6-1.4,0.6-2.9-0.2-4.5c-0.6,0.7-1.1,1.2-1.5,1.8c1.4,2.6,0.5,4.7-2,5.2c-0.6,0.1-1.2,0.2-1.8,0.2c-3.2,0.1-6.5,0-9.7,0.2
		c-2.8,0.2-5,1.8-6.2,4.8c-0.7,1.7-0.8,3.5-0.3,5.6c0.7-0.9,1.3-1.7,2-2.5c-0.1-0.2-0.2-0.6-0.3-0.9c-0.6-2.2,0.1-4.1,2-4.8
		C139.8,62.2,141.6,62.3,143.4,62.3z M166.3,76.1c-0.1,0-0.2,0-0.3-0.1c-0.5,0.7-1,1.5-1.5,2.1c-0.2,0.2-0.5,0.2-0.8,0.3
		c-0.1-0.3-0.2-0.6-0.2-0.8c0.1-1.1,0.2-2.2,0.3-3.2c0.2-2.1,0.5-4.1,0.7-6.2c0.1-1.8-0.8-2.5-2.2-1.8c-0.9,0.5-1.8,1.2-2.6,2
		c-0.9,0.9-1.7,2.1-2.6,3.2c0.2-2.6,0.4-5.1,0.8-7.5c0.2-1.6,0.5-3.3,1-4.8c0.8-2.3,2.2-3,4.3-2.7c0.2,0,0.5,0.1,0.7,0
		c0.6-0.6,1.1-1.3,1.6-1.9c-2.1-0.4-3.9,0.2-5.5,1.8c-2.2,2.1-3.6,4.8-3.9,8.1c-0.4,3.7-0.8,7.3-1.1,11c-0.2,1.6-0.3,3.2-0.5,4.8
		c1.8-0.6,1.8-0.6,2.1-2.6c0-0.4,0.1-0.8,0.1-1.2c0.2-2.8,1.2-5.2,3-7.1c0.5-0.5,1.1-0.9,1.7-1.1c0.8-0.3,1.2,0,1.2,1
		c0,1-0.1,2-0.2,3c-0.2,2.2-0.5,4.4-0.6,6.6c-0.1,1.4,0.8,2,1.8,1.2c1-0.7,1.8-1.8,2.6-2.7C166.2,77.1,166.2,76.5,166.3,76.1z
		 M169.4,75.1c0.3-0.1,0.6-0.2,0.9-0.4c1.7-0.7,3.1-1.9,4.2-3.5c0.6-0.9,1-2,1-3.3s-0.6-2-1.6-1.7c-0.9,0.2-1.8,0.6-2.5,1.2
		c-1.7,1.6-2.9,3.7-3.5,6.1c-0.3,1-0.4,2.1-0.4,3.1c0,2.3,1.4,3.8,3.3,3.7c1.5-0.1,4.2-2.4,4.7-4.1c0.1-0.2,0-0.5-0.1-1
		c-1.9,2.9-2.8,3.5-4.3,3.1C170,78.1,169.5,77,169.4,75.1z"/>
	<path d="M143.4,62.3c-1.8,0-3.6-0.2-5.2,0.5c-1.9,0.8-2.6,2.7-2,4.8c0.1,0.4,0.3,0.7,0.3,0.9c-0.6,0.8-1.2,1.6-2,2.5
		c-0.5-2-0.5-3.8,0.3-5.6c1.2-3,3.4-4.6,6.2-4.8c3.2-0.3,6.5-0.2,9.7-0.2c0.6,0,1.2-0.1,1.8-0.2c2.6-0.5,3.4-2.6,2-5.2
		c0.5-0.6,1-1.2,1.5-1.8c0.8,1.5,0.8,3,0.2,4.5c-1,2.4-2.8,3.6-5,4.2c-1.2,0.3-2.4,0.2-3.6,0.3c-0.7,0-1.4,0-2.2,0
		c-0.2,1.7-0.3,3.3-0.5,4.9c-0.2,2.3-0.4,4.6-0.7,6.9c-0.2,1.9-0.9,3.3-2.5,4.2c1,0.1,2.1,0.1,3.2,0.2c-0.7,1.2-1.5,1.9-2.9,1.7
		c-1.5-0.2-3-0.1-4.5-0.2c0.7-0.9,1.1-2.2,2.5-1.8c0.2,0.1,0.7-0.3,0.9-0.5c0.9-1,1.1-2.3,1.3-3.6C142.7,70.3,143,66.4,143.4,62.3z"
		/>
	<path d="M166.3,76.1c-0.1,0.4-0.1,1-0.3,1.2c-0.8,1-1.6,2-2.6,2.7c-1,0.8-1.9,0.2-1.8-1.2c0.1-2.2,0.4-4.4,0.6-6.6
		c0.1-1,0.2-2,0.2-3c0-1-0.4-1.4-1.2-1c-0.6,0.2-1.2,0.6-1.7,1.1c-1.8,1.9-2.8,4.3-3,7.1c0,0.4-0.1,0.8-0.1,1.2
		c-0.2,2-0.2,2-2.1,2.6c0.1-1.6,0.3-3.2,0.5-4.8c0.4-3.7,0.7-7.3,1.1-11c0.4-3.3,1.7-6,3.9-8.1c1.6-1.5,3.4-2.2,5.5-1.8
		c-0.5,0.7-1,1.3-1.6,1.9c-0.1,0.1-0.5,0.1-0.7,0c-2.1-0.3-3.5,0.4-4.3,2.7c-0.5,1.5-0.8,3.2-1,4.8c-0.3,2.5-0.5,5-0.8,7.5
		c0.9-1.1,1.7-2.3,2.6-3.2c0.8-0.8,1.7-1.5,2.6-2c1.4-0.7,2.3,0,2.2,1.8c-0.1,2.1-0.5,4.1-0.7,6.2c-0.1,1.1-0.2,2.1-0.3,3.2
		c0,0.3,0.1,0.6,0.2,0.8c0.3-0.1,0.6-0.1,0.8-0.3c0.5-0.7,1-1.4,1.5-2.1C166.1,76.1,166.2,76.1,166.3,76.1z"/>
	<path d="M169.4,75.1c0.1,1.8,0.7,2.9,1.6,3.2c1.4,0.4,2.4-0.2,4.3-3.1c0,0.4,0.2,0.8,0.1,1c-0.5,1.7-3.1,4-4.7,4.1
		c-1.9,0.1-3.2-1.4-3.3-3.7c0-1,0.1-2.1,0.4-3.1c0.6-2.4,1.8-4.5,3.5-6.1c0.7-0.6,1.6-1,2.5-1.2c1-0.2,1.6,0.5,1.6,1.7
		c0,1.2-0.4,2.3-1,3.3c-1.1,1.6-2.5,2.8-4.2,3.5C169.9,74.9,169.6,75,169.4,75.1z M169.2,73.2c2,0.7,4.2-0.8,4.6-2.8
		c0.1-0.8,0.1-1.5-0.5-2c-0.6-0.5-1.3-0.4-1.9,0.1c-0.4,0.3-0.8,0.8-1,1.2C169.9,70.8,169.6,72,169.2,73.2z"/>
	<path class="st2" d="M169.2,73.2c0.4-1.2,0.7-2.3,1.2-3.4c0.2-0.5,0.6-0.9,1-1.2c0.6-0.5,1.3-0.6,1.9-0.1c0.6,0.5,0.6,1.2,0.5,2
		C173.4,72.4,171.2,73.8,169.2,73.2z"/>
</g>
<g>
	<path d="M129,151.8c1.4-0.1,2.4-0.1,3.3-0.2c4.3-0.4,8.2-1.8,11.4-4.7c2.9-2.6,4-5.7,3.1-9.5c-0.5-2-1.9-3.1-3.9-2.6
		c-1.5,0.4-3,1.1-4.2,2.1c-2.6,2.1-4.5,4.8-6.2,7.7C131.4,146.8,130.3,149.2,129,151.8z M130.1,144c0.7-1.1,1.2-2,1.8-2.8
		c2.9-4.4,6.5-8.2,11.2-10.8c2.3-1.3,4.7-2,7.4-1.6c2.7,0.3,4.4,2,4.7,4.6c0.6,4.8-1.2,8.7-4.4,12.1c-3.4,3.6-7.7,5.8-12.3,7.3
		c-0.5,0.1-1,0.3-1.4,0.4c0,0.2-0.1,0.2-0.1,0.3c2.7,4.9,5.5,9.7,9.5,13.8c0.3,0.3,0.7,0.7,1.1,1c2.1,1.6,3.9,1.7,5.8-0.1
		c1.4-1.2,2.5-2.7,3.8-4.1c1,0.5,1.2,1.4,0.8,2.4c-0.3,0.7-0.7,1.5-1.2,2.1c-2,2.5-4.4,4.6-7.1,6.2c-2.6,1.5-4.2,1.3-6.4-0.7
		c-3.3-2.9-5.7-6.6-8-10.3c-1.9-3.1-3.7-6.2-5.5-9.3c-0.1-0.3-0.3-0.5-0.6-1c-0.4,3.4-0.7,6.5-1.1,9.6c-0.3,3-0.6,6-1,8.9
		c0,0.3-0.2,0.8-0.4,0.9c-2.2,0.9-4.4,1.8-6.8,2.8c0.2-2.1,0.4-4,0.6-5.9c1-9.2,2-18.4,3.1-27.5c0.9-7.6,1.5-15.2,3-22.7
		c2.2-10.8,7.9-19.6,17.1-25.8c5.1-3.5,10.8-4.8,16.9-3.9c0.4,0.1,0.9,0.2,1.4,0.3c-1.5,1.5-2.9,2.8-4.2,4.3c-1.6,2-3.3,2.5-6,2.1
		c-6.7-1.2-12.2,2.2-15.3,8.8c-2.2,4.7-3,9.8-3.5,14.9c-0.8,7.6-1.7,15.2-2.5,22.9C130.2,143.2,130.2,143.4,130.1,144z"/>
	<path d="M246,140.1c-1.3-1-1.6-1.9-0.9-3.2c0.6-1.1,1.2-2.3,2.2-3.1c2.1-1.9,4.3-3.9,6.8-5.4c3.5-2,7-0.4,7.8,3.6
		c0.6,3.3,0.9,6.8,1.1,10.2c0.4,5.3,0.5,10.6,0.9,15.9c0.1,2.1,0.5,4.2,1,6.2c0.6,2.3,1.9,2.7,4,1.6c2.3-1.3,3.9-3.3,5.4-5.3
		c5.4-7.3,8.9-15.3,10.1-24.3c0.2-1.7,0.6-3.5,1-5.2c0.1-0.3,0.4-0.7,0.6-0.9c2.6-0.9,5.2-1.8,7.8-2.7c0.1,0.1,0.2,0.2,0.1,0.2
		c-2.2,6.4-3.3,13.1-4.6,19.7c-1.9,9.1-2.6,18.2-3.4,27.5c-0.6,7-2.5,12.6-7.2,17.9c-2.6,2.9-7.4,6.3-11,8c-0.4,0.2-0.6,0-1,0
		c-1.3,0.1-3.7-1.8-4-3c-0.6-2.4,0.6,0.1,6.3-5.1c4.4-4,9-8.2,10.9-14c1.3-4.1,1.2-8.5,0.9-12.8c-0.1-2.6-1.6-8.6-0.2-10.9
		c-0.5,0.8-0.9,1.6-1.3,2.3c-3.1,5.1-6.4,10-10.9,14c-1.3,1.2-2.8,2.2-4.3,2.9c-2.4,1.2-4.7,0.4-5.6-2.2c-0.8-2.3-1.3-4.7-1.5-7.1
		c-0.5-8.6-0.8-17.2-1.3-25.7c-0.1-1.4-0.4-2.9-0.9-4.3c-0.6-1.6-1.6-2.1-3.1-1.3c-1.3,0.7-2.3,1.8-3.4,2.8
		c-0.5,0.5-0.9,1.2-1.3,1.9L246,140.1z"/>
	<path d="M64.4,111.4c-1.5,3.3-2.8,6.4-4.3,9.5c-0.9,1.8-1.9,2.3-3.5,1.9c0-0.1-0.1-0.1-0.1-0.2c1-3.1,0.4-4.9-2.3-6.8
		c-4.2-3-9-3.7-14.1-3.2c-7.8,0.7-13.7,4.6-17.7,11.1c-6.8,11.1-7.8,23.1-3.4,35.3c2.1,5.9,6.4,10.1,12.9,11.3
		c5.1,0.9,9.9-0.2,14.4-2.7c4.3-2.3,7.9-5.4,10.3-9.8c1.1,0.3,1.4,1.2,1.1,2c-0.5,1.4-1,2.8-1.9,3.9c-4.7,5.7-10.5,9.8-17.7,11.6
		c-5,1.3-10,1.6-15,0.1c-6.9-2.1-11.1-7.1-13.6-13.7c-1.8-4.9-2.1-10.1-1.8-15.2c0.6-10.6,4.4-19.8,12-27.3
		c8.2-8.2,18.2-11.6,29.8-10.9c4.7,0.3,9.3,1.2,13.8,2.8C63.6,111.1,63.9,111.2,64.4,111.4z"/>
	<path d="M191.5,159.3c1.3,0.9,1.7,1.8,0.8,3.1c-1.3,1.9-2.6,3.8-4.2,5.5c-2.6,2.9-5.6,5.3-9.3,6.8c-8,3.1-15-1-16.3-9.4
		c-0.7-4.6-0.1-9,1.5-13.3c2.8-7.8,7.3-14.5,13.8-19.8c2.6-2.1,5.6-3.5,9.1-3.5c3.7,0,5.7,1.9,5.8,5.7c0.1,2.9-0.6,5.7-2.1,8.3
		c-3.7,6.4-9.2,10.6-15.9,13.5c-1.5,0.7-3.2,1.1-4.7,1.7c-0.3,0.1-0.8,0.6-0.7,0.8c0.5,2.2,0.8,4.4,1.8,6.4c1.9,3.9,6,5.3,10.6,3.9
		c3.3-1,5.7-3.3,7.6-6.1C190.1,161.7,190.7,160.5,191.5,159.3z M169.5,152.1c0.4,0.1,0.6,0.2,0.9,0.3c0.3,0.1,0.5,0.1,0.8,0.1
		c5.4,0.3,9.9-1.6,13.3-5.8c1.7-2,2.4-4.4,2.2-7c-0.2-2.8-1.9-4.6-4.7-4.8c-2.5-0.2-4.6,0.6-6.3,2.4
		C171.8,141.4,170.2,146.6,169.5,152.1z"/>
	<path d="M205.6,176.3c0.2-2.1,0.4-4.1,0.6-6c0.9-8.4,1.9-16.8,2.8-25.1c0.2-2.2,0.5-4.4,0.5-6.7c0.1-2.6-1.4-3.3-3.6-2
		c-1.9,1.1-3,2.9-4.1,4.7c-0.5,0.9-1,1.8-1.5,2.8c-1.1-0.6-1.4-1.5-1.1-2.6c0.2-0.7,0.5-1.4,0.9-2c2.6-3.8,5.9-6.9,9.9-9.1
		c0.6-0.4,1.4-0.6,2.1-0.7c2.5-0.4,4.4,0.9,4.5,3.4c0.1,2.7-0.1,5.4-0.3,8.1c-0.2,2.6-0.5,5.2-0.6,7.8c0.2-0.4,0.4-0.7,0.6-1
		c2.7-4.9,5.6-9.6,9.7-13.5c2.9-2.8,6.2-5,10.5-4.9c1.7,0.1,3.3,0.6,5.3,0.9c-0.4,0.6-0.5,0.8-0.7,1c-1.8,2-3.7,4-5.5,6
		c-0.4,0.5-0.8,0.6-1.4,0.3c-2.6-1-5.1-0.6-7.4,0.9c-3.3,2.2-5.5,5.4-7.5,8.7c-3.1,5.1-4.8,10.6-5.3,16.5c-0.2,3-0.6,6-1,9.1
		c0,0.3-0.3,0.8-0.6,0.9C210.2,174.8,208,175.5,205.6,176.3z"/>
	<path d="M112.6,155.3c-0.3,0.6-0.6,1.2-0.9,1.8c-1.3,2.3-2.5,4.7-4.8,6.2c-0.8,0.5-2.1,0.9-2.9,0.7c-1.1-0.4-0.8-1.7-0.7-2.7
		c0.9-7,1.8-13.9,2.8-20.9c0.7-5.1,1.6-10.1,2.4-15.2c0,0-0.1-0.1-0.2-0.1c-0.4-0.1-0.8-0.3-1.3-0.4c-11-2.2-20.5,0.7-28.3,8.8
		c-6.7,6.9-10.2,15.1-10.6,24.7c-0.1,3.1-0.1,6.1,1.3,8.9c1.2,2.5,3.4,3.6,6.1,3.3c3.4-0.4,6.1-2.2,8.7-4.2c5-3.9,9-8.8,12.4-14.1
		c0.3-0.4,0.5-0.8,0.8-1.2c-0.2,2.8-0.6,5.5-0.9,8.2c-0.3,2.5-0.6,5.1-0.6,7.6c0,2.8,1.7,4.1,4.4,3.6c1-0.2,2-0.5,2.8-0.9
		c4.7-2.7,7.8-6.9,10.4-11.5C114.3,156.7,114,156.1,112.6,155.3z M93.4,150.4c-2,3.5-4.5,6.9-8,9.7c-1.3,1.1-3,2-4.8,2.7
		c-1.9,0.8-3.5,0.3-4.4-1c-0.6-0.9-0.9-2-1.3-3c-0.2-0.5-0.3-1-0.4-1.6c-0.7-5.8-0.4-11.5,2.9-17.2c1.8-3.1,4.3-5.7,8.6-6.9
		c3.4-1,8.7-1.1,9.8-0.7s2,0.7,2,1C101.2,135.2,96.9,144.8,93.4,150.4z"/>
</g>
<path class="st3" d="M36.3,184.5c-1.7-0.3-3.4-0.7-5-0.8c-5-0.4-9.3,1.7-11.9,7.1c-2.8,6-1.2,12.1,2,17c1.4,2.1,2.8,4.2,1.1,5.7
	c-2,1.8-2.3-2.2-3.4-3.4c-1.1-1.2-2-2.8-2.8-4.3c-3.3-6.2-4.2-12.8-1.1-19.5c3-6.4,8.1-7,13.4-6.8c2.8,0.1,5.4,1.2,7.9,2.8
	C36.4,183,36.3,183.7,36.3,184.5z"/>
<g>
	<path d="M252.6,212.5c1.8,1.5,5.8,3.6,7.9,5.5c4.3,4.1,7.3,8,10,13.5c5.5,11,7.9,22.3,1.4,33.7c-6.7,11.6-16.6,10.7-26.2,8.3
		c-7.8-1.9-13.7-8-18.4-16.1c-3.1-5.4-5.4-11.6-9.8-15.6c-7.8-7-17-12.1-9.7-16.4c7.5-4.5,22.4-5.9,29.4-9.4
		c2.6-1.3,4.9-3.2,7.6-4.4C248.2,210.1,250.5,210.9,252.6,212.5z M210.8,228.6c4.1,5.1,10.4,6.4,13.8,12.5
		c3.4,6.1,6.6,12.4,10.5,18.1c6.4,9.4,15,11.6,24.3,9.5c6.4-1.4,9.9-6.7,11.1-14.5c2.9-17.9-14.5-39.8-28.7-36.3
		c-3.7,0.9-5.1,2.5-2,6.5c1.2,1.5,2.4,3.1,1.2,5.6C229.9,220.7,219.3,220.1,210.8,228.6z"/>
	<path class="st4" d="M210.8,228.6c8.5-8.5,19.1-7.9,30.3,1.4c1.2-2.4-0.1-4-1.2-5.6c-3.2-4.1-1.8-5.6,2-6.5
		c14.2-3.5,31.6,18.4,28.7,36.3c-1.2,7.9-4.7,13.1-11.1,14.5c-9.4,2.1-17.9-0.1-24.3-9.5c-3.9-5.7-7-12-10.5-18.1
		C221.1,235,214.9,233.6,210.8,228.6z"/>
	<path class="st5" d="M21.2,198.7c21.3,10.8,46.1,32.2,87.3,36.4c14.8,1.5,30.6,1.8,44,1c55.2-3.3,94.4-26.4,114-37"/>
</g>
<path class="st2" d="M133.2,103.4"/>
</svg>
