<?xml version="1.0" encoding="utf-8"?>
<!-- Generator: Adobe Illustrator 26.0.3, SVG Export Plug-In . SVG Version: 6.00 Build 0)  -->
<svg version="1.1" id="Layer_1" xmlns="http://www.w3.org/2000/svg" xmlns:xlink="http://www.w3.org/1999/xlink" x="0px" y="0px"
	 viewBox="0 0 4560.96 588.98" style="enable-background:new 0 0 4560.96 588.98;" xml:space="preserve">
<style type="text/css">
	.st0{fill:#F3E0CA;}
</style>
<g>
	<path class="st0" d="M3135.07,1.94c0,155.14,49.75,281.31,49.75,436.45c0,1.12,80.76-24.6,80.6-23.5
		c-0.03,0.24-59.57,50.28-136.67,56.87c-22.2,1.9-71.67-5.86-103.36-25.65c-11.27-7.04-4.43-3.29-7.33-5.2
		c-2.84-1.88-5.58-3.9-8.22-6.04c-3.85-3.13-8.12-5.61-12.22-8.35c-3.97-2.65-7.9-5.37-12.06-7.76
		c-5.66-3.24-10.98-7.09-16.64-10.36c-5.24-3.02-10.31-6.42-16.06-8.49c-1.97-0.71-3.62-1.99-5.65-2.65
		c-5.58-1.81-11-4.06-16.06-7.03c-6.55-3.85-13.53-6.5-20.51-9.19c-4.21-1.62-8.57-2.83-12.84-4.3c-7.07-2.43-14.26-4.5-21.54-6.22
		c-8.75-2.07-17.55-3.98-26.33-5.91c-1.08-0.24-2.22-0.16-3.33-0.28c-0.78-0.09-1.68-0.07-2.31-0.45c-3.13-1.9-6.65-1.9-10.09-2.37
		c-3.46-0.47-6.89-1.12-10.34-1.64c-0.96-0.14-1.93-0.22-2.9-0.25c-1.89-0.05-3.75-0.05-5.61-0.69c-1.16-0.4-2.53-0.24-3.8-0.27
		c-2.69-0.06-5.41,0.24-7.99-0.8c-0.14-0.06-0.38-0.1-0.53-0.1c-5.28,0.21-10.48-0.73-15.72-0.99c-6.99-0.35-14-0.47-21-0.46
		c-2.84,0-5.58-0.74-8.42-0.51c-1.84,0.15-3.7,0.05-5.55-0.02c-4.44-0.18-8.85,0.17-13.25,0.68c-1.13,0.13-2.99,0.23-4.14,0.24
		c-5.76,0.02-11.52,0.01-17.28,0.04c-2.39,0.01-4.73,0.04-7.12,0.65c-2.12,0.54-4.45,0.24-6.68,0.31
		c-4.13,0.14-8.24-0.16-12.39,0.76c-2.9,0.64-6.05,0.17-9.09,0.2c-2.07,0.02-4.15-0.14-6.15,0.67c-0.71,0.29-1.57,0.24-2.37,0.27
		c-3.5,0.11-7.04-0.31-10.44,0.92c-5.93-0.48-11.73,1.16-17.64,1.04c-1.6-0.03-3.17-0.01-4.73,0.55c-1.84,0.67-3.8,0.34-5.71,0.4
		c-1.59,0.05-3.18-0.09-4.73,0.54c-2.86,1.18-5.85,1.47-8.92,1.33c-1.89-0.09-3.82-0.15-5.64,0.61c-0.41,0.17-0.83,0.28-1.27,0.28
		c-6.6,0.02-13.07,1.51-19.61,1.87c-6.53,0.36-12.97,1.23-19.44,1.94c-4.73,0.52-9.49,0.73-14.23,1.07
		c-3.17,0.22-6.28,0.88-9.48,1.04c-5.54,0.27-11.06,1.06-16.6,1.58c-4.75,0.45-9.5,0.82-14.25,1.24c-4.12,0.36-8.25,0.63-12.34,1.17
		c-2.84,0.38-5.77,0.33-8.52,0.88c-5.67,1.14-11.42,0.58-17.1,1.51c-5.54,0.92-11.25,0.89-16.87,1.32
		c-0.93,0.07-1.85,0.22-2.77,0.35c-2.3,0.34-4.65,0.42-6.98,0.53c-1.62,0.08-3.25-0.04-4.8,0.65c-0.43,0.19-0.9,0.24-1.37,0.23
		c-5.89-0.14-11.74,0.51-17.59,1.03c-2.53,0.22-5.06,0.01-7.59,0.74c-1.64,0.47-3.49,0.18-5.25,0.25
		c-4.93,0.18-9.88-0.46-14.78,0.82c-2.56,0.67-5.58-0.41-8.02,0.58c-5.83,2.36-12.21,2.34-18.09,0.09
		c-3.35-1.28-6.57,0.06-9.76-0.04c-2.21-0.07-4.34-0.17-6.53,0.31c-2.49,0.54-4.95-0.57-7.5-0.51c-2.07,0.05-4.33-0.56-6.41-0.14
		c-6.34,1.26-12.8,1.22-19.16,0.09c-3.59-0.64-7.21,0.27-10.76-0.98c-1.15-0.41-2.53-0.18-3.81-0.23
		c-4.45-0.17-8.87-0.15-13.35-0.73c-4.85-0.63-9.82-0.93-14.74-1.1c-6.73-0.23-13.34-1.25-20.01-1.92
		c-6.5-0.66-12.99-1.44-19.46-2.29c-5.29-0.69-10.63-1.06-15.84-2.38c-2.61-0.66-5.34-0.25-8.04-0.98
		c-5.04-1.37-10.28-1.98-15.44-2.84c-3.91-0.65-7.8-1.43-11.71-2.02c-5.52-0.83-10.86-2.41-16.34-3.35
		c-0.16-0.03-0.3-0.11-0.45-0.16c-2.81-0.98-5.86-0.44-8.71-2.08c-2.57-1.47-5.94-1.53-8.93-2.28c-2.54-0.64-5.07-1.3-7.63-1.86
		c-5.74-1.28-11.39-2.92-17.03-4.6c-2.9-0.86-5.93-1.3-8.87-2.05c-3.39-0.86-6.79-1.72-10.1-2.82c-6.05-2.01-12.29-3.32-18.36-5.18
		c-4.69-1.44-9.55-2.56-13.88-5.07c-1.08-0.63-2.38-0.89-3.6-1.29c-9.1-2.93-18.24-5.78-27.31-8.81c-5.7-1.9-11.29-4.14-16.95-6.16
		c-1.23-0.44-2.49-0.8-3.75-1.16c-6.92-1.98-13.34-5.2-19.95-7.93c-6.48-2.67-12.95-5.44-19.6-7.63
		c-11.36-3.74-22.34-8.45-33.5-12.69c-6.68-2.54-13.12-5.66-19.84-8.11c-6.58-2.4-12.93-5.51-19.59-7.64
		c-7.3-2.34-14.28-5.45-21.49-7.97c-1.52-0.53-3.01-1.03-4.36-1.92c-0.66-0.43-1.36-0.89-2.1-1.08c-2.92-0.77-5.63-2.09-8.47-3.09
		c-11.72-4.12-23.46-8.2-35.22-12.2c-6.03-2.05-12.14-3.88-18.22-5.81c-2.12-0.67-4.33-1.11-6.15-2.54
		c-0.36-0.28-0.88-0.35-1.35-0.47c-8.02-2.03-15.69-5.21-23.85-6.84c-5.44-1.09-10.73-2.94-16.13-4.31
		c-4.76-1.21-9.45-2.69-14.36-3.37c-3.28-0.46-6.44-1.7-9.69-2.43c-5.58-1.24-11.15-2.5-16.83-3.31c-3.6-0.51-7.06-1.93-10.75-2.07
		c-1.9-1.77-4.47-1.9-6.73-2.07c-5.57-0.41-10.8-2.82-16.47-2.47c-2.45,0.15-4.72-1.23-7.28-1.04c-2.96,0.22-5.92,0.01-8.75-0.88
		c-4.42-1.39-8.81-1.68-13.25-1.92c-3.7-0.2-7.39-0.55-11.05-1.1c-3.42-0.51-6.82-0.87-10.27-0.81c-2.54,0.04-5.12,0.26-7.57-0.78
		c-0.25-0.11-0.52-0.16-0.79-0.13c-6.78,0.55-13.45-1.01-20.2-1c-8.32,0.02-16.64,0.03-24.95,0c-5.44-0.02-10.86,0.1-16.26,0.82
		c-0.76,0.1-2,0.16-2.76,0.15c-4.78-0.09-9.52,0.58-14.26,0.79c-4.78,0.21-9.54,0.77-14.26,1.29c-4.86,0.54-9.77,0.84-14.63,1.54
		c-6.27,0.91-12.54,2.11-18.93,2.21c-1.88,0.03-3.77,0.53-5.62,0.96c-5.89,1.39-11.91,1.91-17.86,2.85
		c-0.47,0.07-1.02,0.04-1.39,0.27c-3.39,2.1-7.31,1.84-11.01,2.54c-3.74,0.71-7.48,1.45-11.22,2.2c-6.38,1.27-12.7,2.8-19.16,3.7
		c-4.07,0.57-8.05,1.84-12.08,2.74c-8.68,1.95-17.38,3.79-26.04,5.82c-9.46,2.21-18.98,4.25-28.26,7.06
		c-5.84,1.77-11.72,3.39-17.66,4.78c-8.88,2.08-17.62,4.72-26.47,6.9c-5.39,1.33-10.81,2.61-16.2,3.96
		c-7.31,1.83-14.56,3.92-21.94,5.46c-2.62,0.55-6.82,1.71-9.31,2.68c-5.62,2.17-11.5,3.33-17.29,4.86
		c-4.36,1.15-11.5,3.02-15.89,4.07c-6.35,1.53-12.68,3.13-18.99,4.81c-3.65,0.97-7.46,1.5-11.16,2.41
		c-8.65,2.13-17.31,4.18-25.97,6.26c-0.62,0.15-1.23,0.32-1.86,0.45c-3.4,0.68-6.73,1.41-10.03,2.68
		c-4.11,1.57-8.62,2.09-12.96,3.04c-0.46,0.1-1.01-0.08-1.43,0.1c-3.85,1.69-8.06,1.72-12.08,2.62c-6.5,1.47-13.06,2.68-19.59,4.03
		c-7.77,1.61-15.61,2.8-23.38,4.45c-4.93,1.05-9.94,2.11-15.05,2.34c-1.57,0.07-3.11,0.63-4.67,0.9
		c-5.47,0.94-10.92,2.28-16.43,2.66c-5.89,0.41-11.57,2.26-17.49,2.2c-0.62-0.01-1.41,0.04-1.83,0.39
		c-1.76,1.48-3.96,0.98-5.88,1.54c-4.35,1.28-8.96,0.11-13.22,1.71c-7.97,0.03-15.74,2.25-23.76,2.11
		c-3.94-0.07-7.92,0.58-11.84,1.2c-3.17,0.5-6.33,0.68-9.52,0.64c-2.08-0.03-4.15-0.02-6.18,0.48c-2.19,0.53-4.43,0.49-6.66,0.49
		c-5.07-0.01-10.14-0.03-15.17,0.89c-1.09,0.2-2.23,0.06-3.35,0.06c-8.42,0-16.85-0.17-25.27,0.17c-4.6,0.18-9.2,0.25-13.81,0.18
		c-9.51-0.14-19.01-0.21-28.52-0.37c-1.94-0.03-3.87-0.27-5.8-0.55c-3.16-0.47-6.34-0.34-9.52-0.39c-1.39-0.02-2.77-0.14-4.14-0.37
		c-2.85-0.48-5.7-0.71-8.59-0.58c-2.4,0.11-4.76-0.25-7.14-0.46c-5.12-0.44-10.2-1.29-15.35-1.62c-3.41-0.22-6.82-0.53-10.21-1.02
		c-5.98-0.86-12.04-1.18-17.94-2.57c-1.07-0.25-2.23-0.12-3.35-0.11c-1.61,0.01-3.1-0.13-4.55-1.09c-2.2-1.46-5.07-0.36-7.38-1.64
		c-2.93,0.42-5.66-0.76-8.49-1.11c-4.24-0.52-8.46-1.13-12.64-2c-5.59-1.17-11.41-1.46-16.93-2.87c-5.25-1.35-10.62-1.93-15.89-3.09
		c-7.28-1.61-14.52-3.41-21.88-4.68c-5.93-1.02-11.71-2.95-17.57-4.44c-4.16-1.06-8.34-2.06-12.51-3.08
		c-0.46-0.11-0.98-0.08-1.39-0.28c-6.04-2.99-12.64-4.28-18.98-6.35c-6.21-2.03-12.48-3.86-18.69-5.88
		c-4.26-1.38-8.46-2.94-12.66-4.5c-4.52-1.67-8.99-3.45-13.5-5.13c-0.88-0.33-2.29-0.97-3.12-1.4c-5.36-2.76-11.05-4.76-16.63-6.99
		c-0.69-0.27-1.8-0.76-2.46-1.08c-7.35-3.51-14.69-7.03-22.04-10.53c-3.59-1.71-7.17-3.46-10.83-5c-1.98-0.83-3.28-2.48-5.09-3.52
		c-4.25-2.45-8.86-4.13-12.94-6.98c-5.2-3.64-10.78-6.69-16.38-9.67c-5.85-3.11-10.92-7.44-16.56-10.8
		c-5.89-3.51-11.36-7.63-17.24-11.16c-7.07-4.25-13.58-9.45-20.27-14.32c-5.53-4.03-10.96-8.19-16.46-12.27
		c-7.02-5.21-14.07-10.4-21.09-15.61c-6.91-5.12-13.94-10.08-20.64-15.45c-3.46-2.77-7.49-4.75-10.63-7.92
		c-2.74-0.69-4.58-2.82-6.81-4.31c-9.27-6.19-18.12-13.01-27.59-18.91c-7.03-4.38-13.97-8.91-21.11-13.11
		c-2.74-1.61-5.45-3.2-8.05-5.05c-2.3-1.64-5.04-2.68-7.58-3.99c-8.79-4.55-17.58-9.11-26.37-13.67c-2.12-1.1-4.39-1.95-6.28-3.49
		c-0.35-0.28-0.98-0.59-1.42-0.69c-3.74-0.84-6.7-3.44-10.24-4.64c-7.24-2.46-14.1-5.84-21.31-8.39c-3.06-1.08-6.06-2.32-9.03-3.61
		c-1.57-0.68-3.19-1.12-4.81-1.62c-4.25-1.31-8.35-3.04-12.46-4.78c-5.27-2.22-10.85-3.71-16.3-5.5c-0.75-0.25-1.54-0.39-2.29-0.65
		c-6.16-2.2-12.58-3.45-18.81-5.36c-7.16-2.19-14.46-3.75-21.72-5.51c-7.57-1.83-15.1-3.9-22.75-5.3c-3.75-0.69-7.18-2.4-10.97-2.8
		c-5.37-0.57-10.54-2.29-15.98-2.56c-3.23-0.16-6.43-1-9.65-1.51c-1.07-0.17-2.15-0.26-3.24-0.29c-3.62-0.1-4-0.06-10.27-0.91
		c-5.44-0.9-9.85-0.49-14.76-1.04c-6.51-0.72-19.35-1.73-20.45-1.93c-9.92-1.82-9.97-1.31-17.81-3.61
		C79.18,14.22,17.12,2.9,10.5,2.91c-12.45,0.02,1933.47,2.46,3047,2.46C3059.26,5.38,3133.31,1.93,3135.07,1.94z"/>
</g>
<g>
	<path class="st0" d="M2335.61,4.52c8.62,284.32,23.35,220.72,179.3,165.47c3.86-3.02-47.22,73.69-42.97,71.61
		c27.26,44.25,18.35,43.91,35.8-3.58c4.32-2.69,11.91,51.45,14.32,42.97c43.8-152.29,250.67-23.46,334.1-16.01
		c171.95,33.88,216.76,266.3,359.18,180.85c212.07-127.24,491.06-137.39,697.41-123.01C4330.94,350.5,4142.64-8.53,4567.29,0.9
		C4626.51,2.22,3135.07,1.94,2335.61,4.52z"/>
</g>
</svg>
