<?xml version="1.0" encoding="utf-8"?>
<!-- Generator: Adobe Illustrator 26.0.3, SVG Export Plug-In . SVG Version: 6.00 Build 0)  -->
<svg version="1.1" id="Layer_1" xmlns="http://www.w3.org/2000/svg" xmlns:xlink="http://www.w3.org/1999/xlink" x="0px" y="0px"
	 viewBox="0 0 4560.96 588.98" style="enable-background:new 0 0 4560.96 588.98;" xml:space="preserve">
<style type="text/css">
	.st0{fill:#F3E0CA;}
</style>
<g>
	<path class="st0" d="M1424.02,588.82c-0.44-155.14-50.54-281.17-50.97-436.31c0-1.12-80.69,24.82-80.53,23.72
		c0.03-0.24,59.43-50.45,136.51-57.26c22.19-1.96,71.68,5.66,103.43,25.36c11.29,7.01,4.44,3.27,7.34,5.18
		c2.84,1.87,5.59,3.88,8.24,6.02c3.86,3.12,8.14,5.59,12.24,8.32c3.97,2.64,7.91,5.35,12.08,7.72c5.67,3.23,11,7.06,16.66,10.31
		c5.25,3.01,10.33,6.39,16.08,8.45c1.97,0.7,3.63,1.98,5.65,2.63c5.58,1.8,11.01,4.03,16.08,6.99c6.56,3.83,13.55,6.46,20.54,9.13
		c4.21,1.61,8.58,2.81,12.85,4.26c7.08,2.41,14.27,4.46,21.56,6.16c8.76,2.05,17.56,3.93,26.35,5.83c1.08,0.23,2.22,0.15,3.33,0.27
		c0.78,0.09,1.68,0.06,2.32,0.44c3.13,1.89,6.66,1.88,10.1,2.34c3.46,0.46,6.89,1.1,10.35,1.61c0.96,0.14,1.93,0.22,2.9,0.24
		c1.89,0.04,3.75,0.04,5.61,0.68c1.16,0.4,2.53,0.24,3.8,0.26c2.69,0.06,5.41-0.25,7.99,0.78c0.14,0.06,0.38,0.1,0.53,0.09
		c5.28-0.23,10.48,0.7,15.72,0.95c6.99,0.33,14,0.43,21,0.4c2.84-0.01,5.58,0.72,8.42,0.48c1.84-0.15,3.7-0.06,5.55,0.01
		c4.44,0.17,8.85-0.2,13.24-0.72c1.13-0.13,2.99-0.24,4.13-0.25c5.76-0.04,11.52-0.04,17.28-0.09c2.39-0.02,4.73-0.05,7.12-0.67
		c2.12-0.55,4.45-0.25,6.68-0.33c4.13-0.15,8.24,0.13,12.39-0.79c2.9-0.65,6.05-0.19,9.09-0.23c2.07-0.03,4.15,0.13,6.15-0.69
		c0.71-0.29,1.57-0.25,2.37-0.27c3.5-0.12,7.04,0.29,10.44-0.95c5.93,0.46,11.73-1.19,17.64-1.09c1.6,0.03,3.17,0,4.73-0.57
		c1.84-0.67,3.8-0.35,5.71-0.41c1.59-0.05,3.18,0.08,4.73-0.56c2.85-1.18,5.84-1.49,8.92-1.35c1.89,0.08,3.82,0.14,5.64-0.62
		c0.41-0.17,0.83-0.28,1.27-0.28c6.6-0.04,13.06-1.55,19.6-1.92c6.53-0.37,12.96-1.27,19.44-1.99c4.72-0.53,9.48-0.76,14.23-1.11
		c3.17-0.23,6.28-0.9,9.47-1.07c5.54-0.29,11.06-1.09,16.59-1.62c4.75-0.46,9.5-0.84,14.25-1.28c4.12-0.38,8.25-0.65,12.34-1.2
		c2.84-0.38,5.77-0.35,8.51-0.91c5.67-1.16,11.42-0.61,17.09-1.56c5.54-0.93,11.25-0.92,16.86-1.37c0.93-0.07,1.84-0.22,2.76-0.36
		c2.3-0.34,4.65-0.43,6.98-0.54c1.62-0.08,3.25,0.03,4.8-0.67c0.43-0.19,0.9-0.25,1.37-0.24c5.89,0.13,11.73-0.55,17.59-1.08
		c2.53-0.23,5.06-0.03,7.59-0.77c1.64-0.48,3.49-0.19,5.25-0.26c4.93-0.2,9.88,0.43,14.78-0.86c2.56-0.68,5.58,0.39,8.02-0.6
		c5.83-2.37,12.21-2.38,18.09-0.15c3.35,1.27,6.57-0.08,9.76,0.01c2.21,0.06,4.34,0.16,6.53-0.33c2.49-0.55,4.95,0.55,7.5,0.48
		c2.07-0.05,4.33,0.54,6.41,0.12c6.33-1.27,12.8-1.25,19.16-0.14c3.59,0.63,7.21-0.29,10.76,0.94c1.15,0.4,2.53,0.17,3.81,0.22
		c4.45,0.16,8.87,0.12,13.35,0.69c4.85,0.62,9.83,0.9,14.74,1.06c6.73,0.21,13.34,1.21,20.01,1.87c6.5,0.64,12.99,1.41,19.47,2.24
		c5.29,0.68,10.64,1.03,15.84,2.34c2.62,0.65,5.34,0.24,8.04,0.96c5.05,1.35,10.29,1.95,15.44,2.8c3.91,0.64,7.81,1.41,11.72,1.99
		c5.52,0.81,10.86,2.38,16.34,3.3c0.16,0.03,0.3,0.11,0.45,0.16c2.82,0.97,5.86,0.42,8.72,2.05c2.57,1.47,5.95,1.52,8.94,2.26
		c2.54,0.63,5.08,1.28,7.63,1.84c5.75,1.26,11.4,2.89,17.04,4.56c2.9,0.86,5.93,1.29,8.88,2.03c3.39,0.85,6.79,1.71,10.11,2.8
		c6.05,1.99,12.3,3.28,18.38,5.13c4.7,1.43,9.55,2.53,13.9,5.03c1.09,0.63,2.39,0.89,3.6,1.28c9.11,2.91,18.25,5.73,27.33,8.73
		c5.7,1.89,11.3,4.11,16.96,6.11c1.24,0.44,2.5,0.79,3.76,1.15c6.92,1.96,13.35,5.16,19.98,7.87c6.49,2.65,12.96,5.41,19.62,7.57
		c11.37,3.7,22.36,8.38,33.53,12.59c6.69,2.52,13.13,5.63,19.86,8.06c6.59,2.38,12.94,5.47,19.61,7.58
		c7.3,2.32,14.29,5.41,21.51,7.91c1.52,0.53,3.01,1.02,4.37,1.91c0.66,0.43,1.36,0.88,2.1,1.08c2.93,0.76,5.64,2.08,8.47,3.06
		c11.73,4.09,23.48,8.14,35.26,12.1c6.04,2.03,12.15,3.84,18.23,5.76c2.12,0.67,4.33,1.1,6.16,2.52c0.36,0.28,0.88,0.35,1.35,0.47
		c8.02,2.01,15.71,5.16,23.87,6.77c5.45,1.07,10.74,2.91,16.14,4.26c4.77,1.19,9.46,2.66,14.37,3.33c3.28,0.45,6.45,1.68,9.7,2.4
		c5.58,1.23,11.16,2.47,16.83,3.26c3.6,0.5,7.06,1.91,10.75,2.04c1.91,1.76,4.48,1.89,6.73,2.05c5.57,0.39,10.81,2.79,16.48,2.43
		c2.45-0.16,4.73,1.22,7.28,1.02c2.96-0.23,5.92-0.03,8.76,0.86c4.42,1.38,8.81,1.66,13.26,1.89c3.7,0.19,7.39,0.53,11.06,1.07
		c3.42,0.5,6.82,0.85,10.27,0.79c2.54-0.05,5.12-0.28,7.57,0.75c0.25,0.11,0.52,0.16,0.79,0.13c6.78-0.57,13.45,0.98,20.2,0.94
		c8.32-0.05,16.64-0.07,24.95-0.07c5.44,0,10.86-0.14,16.26-0.86c0.76-0.1,2-0.17,2.76-0.16c4.78,0.07,9.52-0.61,14.26-0.83
		c4.78-0.23,9.53-0.8,14.25-1.33c4.86-0.55,9.76-0.87,14.63-1.59c6.27-0.92,12.54-2.14,18.93-2.26c1.88-0.04,3.77-0.54,5.62-0.98
		c5.88-1.41,11.9-1.94,17.86-2.9c0.47-0.08,1.02-0.04,1.39-0.27c3.39-2.11,7.3-1.86,11.01-2.57c3.74-0.72,7.48-1.47,11.21-2.23
		c6.38-1.29,12.69-2.84,19.15-3.75c4.07-0.58,8.04-1.86,12.07-2.78c8.67-1.97,17.37-3.84,26.02-5.89c9.45-2.24,18.96-4.3,28.24-7.14
		c5.83-1.78,11.71-3.43,17.65-4.83c8.88-2.1,17.61-4.77,26.45-6.97c5.39-1.35,10.8-2.64,16.19-4.01c7.31-1.85,14.55-3.96,21.92-5.52
		c2.61-0.55,6.81-1.73,9.3-2.7c5.61-2.19,11.49-3.37,17.28-4.91c4.36-1.16,11.49-3.05,15.88-4.12c6.35-1.55,12.67-3.17,18.98-4.86
		c3.65-0.98,7.46-1.52,11.16-2.44c8.64-2.15,17.3-4.23,25.95-6.34c0.62-0.15,1.23-0.33,1.85-0.45c3.4-0.69,6.72-1.43,10.02-2.71
		c4.1-1.58,8.61-2.12,12.95-3.08c0.46-0.1,1.02,0.08,1.43-0.1c3.85-1.7,8.06-1.74,12.07-2.66c6.5-1.49,13.05-2.71,19.58-4.09
		c7.76-1.64,15.6-2.84,23.36-4.51c4.92-1.06,9.93-2.14,15.04-2.38c1.57-0.07,3.1-0.64,4.67-0.91c5.47-0.96,10.91-2.31,16.42-2.71
		c5.89-0.43,11.56-2.3,17.49-2.25c0.62,0,1.41-0.04,1.83-0.4c1.76-1.49,3.96-0.99,5.87-1.55c4.35-1.29,8.96-0.14,13.21-1.75
		c7.97-0.05,15.73-2.29,23.75-2.17c3.94,0.06,7.92-0.61,11.84-1.24c3.17-0.51,6.33-0.7,9.52-0.66c2.08,0.03,4.15,0,6.18-0.5
		c2.19-0.54,4.43-0.51,6.66-0.51c5.07,0,10.14,0,15.17-0.93c1.09-0.2,2.23-0.07,3.35-0.07c8.42-0.03,16.85,0.13,25.27-0.24
		c4.6-0.2,9.2-0.28,13.81-0.22c9.51,0.12,19.01,0.15,28.52,0.29c1.94,0.03,3.88,0.26,5.8,0.54c3.17,0.46,6.34,0.32,9.52,0.37
		c1.39,0.02,2.77,0.13,4.14,0.36c2.85,0.47,5.71,0.69,8.59,0.55c2.4-0.12,4.76,0.24,7.14,0.44c5.13,0.43,10.2,1.26,15.35,1.57
		c3.41,0.21,6.82,0.51,10.21,0.99c5.98,0.85,12.04,1.14,17.95,2.52c1.07,0.25,2.23,0.11,3.35,0.1c1.61-0.02,3.1,0.12,4.56,1.08
		c2.2,1.45,5.07,0.35,7.39,1.62c2.93-0.42,5.66,0.75,8.5,1.09c4.24,0.51,8.46,1.1,12.65,1.96c5.6,1.15,11.41,1.43,16.94,2.83
		c5.25,1.33,10.62,1.9,15.9,3.05c7.28,1.59,14.52,3.37,21.9,4.62c5.94,1.01,11.72,2.92,17.58,4.39c4.16,1.05,8.34,2.04,12.51,3.05
		c0.46,0.11,0.98,0.08,1.4,0.28c6.04,2.97,12.65,4.24,19,6.3c6.21,2.01,12.49,3.83,18.7,5.83c4.26,1.37,8.47,2.92,12.67,4.46
		c4.52,1.66,9,3.43,13.52,5.1c0.89,0.33,2.29,0.96,3.13,1.39c5.37,2.74,11.06,4.73,16.65,6.94c0.69,0.27,1.8,0.76,2.47,1.08
		c7.36,3.49,14.71,6.99,22.07,10.46c3.6,1.7,7.17,3.44,10.84,4.97c1.98,0.83,3.29,2.47,5.1,3.51c4.26,2.43,8.88,4.11,12.96,6.95
		c5.21,3.63,10.8,6.66,16.41,9.62c5.86,3.1,10.94,7.41,16.59,10.76c5.9,3.5,11.38,7.6,17.27,11.12c7.08,4.23,13.61,9.41,20.31,14.26
		c5.54,4.01,10.99,8.16,16.49,12.22c7.04,5.19,14.1,10.36,21.14,15.55c6.92,5.1,13.97,10.04,20.69,15.39
		c3.47,2.76,7.5,4.73,10.65,7.89c2.74,0.68,4.59,2.81,6.82,4.29c9.29,6.17,18.15,12.96,27.65,18.83c7.05,4.36,14,8.87,21.15,13.05
		c2.75,1.6,5.46,3.18,8.06,5.03c2.31,1.64,5.05,2.66,7.59,3.97c8.8,4.53,17.61,9.06,26.41,13.6c2.13,1.1,4.39,1.94,6.29,3.47
		c0.35,0.28,0.98,0.59,1.42,0.69c3.75,0.83,6.71,3.42,10.25,4.61c7.25,2.44,14.12,5.81,21.33,8.33c3.06,1.07,6.06,2.3,9.04,3.58
		c1.58,0.68,3.19,1.11,4.81,1.61c4.25,1.3,8.36,3.02,12.47,4.74c5.28,2.21,10.86,3.68,16.31,5.46c0.75,0.25,1.55,0.38,2.29,0.64
		c6.16,2.18,12.59,3.42,18.83,5.31c7.17,2.17,14.47,3.71,21.74,5.45c7.57,1.81,15.11,3.85,22.76,5.24
		c3.76,0.68,7.18,2.38,10.98,2.77c5.37,0.55,10.55,2.26,15.99,2.52c3.24,0.16,6.44,0.98,9.66,1.48c1.07,0.17,2.15,0.26,3.24,0.28
		c3.62,0.09,4,0.05,10.27,0.88c5.44,0.88,9.85,0.46,14.76,1c6.51,0.7,19.35,1.67,20.45,1.87c9.93,1.79,9.97,1.28,17.82,3.56
		c6.62,0.02,82.35,21.62,88.97,21.59c12.45-0.06-1941.53-0.55-3058.12-0.77C1502.34,588.75,1425.78,588.82,1424.02,588.82z"/>
</g>
<g>
	<path class="st0" d="M2235.18,588.74c-9.42-284.29-27.08-224.4-182.88-168.71c-3.86,3.03,47.01-73.82,42.77-71.73
		c-27.38-44.18-18.47-43.86-35.79,3.68c-4.31,2.7-12.05-51.41-14.45-42.93c-43.37,152.41-250.6,24.16-334.05,16.95
		c-172.04-33.39-217.51-265.69-359.68-179.84c-211.72,127.84-490.67,138.77-697.06,124.97C235.77,244.63,424.31,596.99-0.36,588.74
		C-59.59,587.59,1433.37,587.97,2235.18,588.74z"/>
</g>
</svg>
