<?xml version="1.0" encoding="utf-8"?>
<!-- Generator: Adobe Illustrator 26.0.3, SVG Export Plug-In . SVG Version: 6.00 Build 0)  -->
<svg version="1.1" id="Layer_1" xmlns="http://www.w3.org/2000/svg" xmlns:xlink="http://www.w3.org/1999/xlink" x="0px" y="0px"
	 viewBox="0 0 312.74 176.98" style="enable-background:new 0 0 312.74 176.98;" xml:space="preserve">
<style type="text/css">
	.st0{fill:#FFFFFF;}
	.st1{font-family:'OrLemmen-Regular';}
	.st2{font-size:56.7898px;}
</style>
<g>
	<g>
		<path class="st0" d="M201.02,132.32c-9,0-18,0-27.01,0C174,88.35,174,44.38,174,0.32c45.28,0,90.57,0,136,0c0,43.95,0,87.97,0,132
			c-30.28,0-60.62,0-90.96,0c6.23-2.83,10.37-7.83,13.36-13.68c8.19-16,16.16-32.1,24.17-48.19c0.33-0.67,0.22-1.56,0.32-2.34
			c-4.07,7.05-7.21,14.39-10.89,21.45c-5.85,11.21-11.88,22.34-18.2,33.28c-2.91,5.04-7.48,8.21-12.5,8.29
			c4.17-5.22,9.36-10.46,13.06-16.59c8.34-13.83,15.85-28.15,23.88-42.17c2.1-3.66,3.68-6.85-1.45-9.92
			c-8.03,4.16-16.64,8.19-24.82,12.95c-14.14,8.22-29.55,14.8-39.71,29.4c0.03-7.09,3.06-12.19,8.54-15.14
			c16.56-8.92,33.35-17.4,50.06-26.05c1.55-0.8,3.09-1.61,4.63-2.42c-5.21,1.09-10.01,2.94-14.52,5.33
			c-14.13,7.45-28.38,14.71-42.05,22.95c-3.63,2.19-7.29,7.49-7.54,11.57C184.47,115.88,184.67,125.54,201.02,132.32z M259.62,67.33
			c12.33-12.35,24.52-24.39,36.5-36.65c2.64-2.71,3.83-5.98,0.01-9.26c-3.54-3.04-6.12-3.05-10.15,0.95
			c-11.22,11.13-22.4,22.3-33.58,33.49c-0.77,0.77-1.32,1.76-1.85,2.5C253.61,61.38,256.43,64.17,259.62,67.33z"/>
		<path d="M201.02,132.32c-16.34-6.79-16.54-16.45-15.64-31.3c0.25-4.08,3.91-9.38,7.54-11.57c13.66-8.23,27.92-15.49,42.05-22.95
			c4.52-2.38,9.31-4.24,14.52-5.33c-1.54,0.81-3.08,1.62-4.63,2.42c-16.7,8.65-33.5,17.14-50.06,26.05
			c-5.48,2.95-8.52,8.05-8.54,15.14c10.16-14.6,25.58-21.17,39.71-29.4c8.18-4.76,16.79-8.79,24.82-12.95
			c5.13,3.07,3.55,6.26,1.45,9.92c-8.03,14.02-15.55,28.34-23.88,42.17c-3.7,6.14-8.89,11.38-13.06,16.59
			c5.01-0.08,9.59-3.25,12.5-8.29c6.32-10.95,12.35-22.07,18.2-33.28c3.68-7.06,6.83-14.4,10.89-21.45
			c-0.1,0.79,0.01,1.67-0.32,2.34c-8.01,16.09-15.98,32.19-24.17,48.19c-3,5.86-7.14,10.86-13.36,13.68
			C213.03,132.32,207.02,132.32,201.02,132.32z M244.44,74.24c-0.37-0.34-0.73-0.69-1.1-1.03c-8.96,6.04-18.01,11.94-26.84,18.16
			c-5.43,3.82-10.78,7.83-15.69,12.29c-4.14,3.76-5.66,13.52-3.23,16.16c2.56,2.78,11.69,1.45,16.15-2.87
			c3.08-2.98,5.75-6.46,8.22-9.99C229.55,96.13,236.96,85.16,244.44,74.24z M249.61,66.44c-0.24-0.33-0.48-0.65-0.72-0.98
			c-0.56,0.21-1.17,0.34-1.68,0.63c-15.76,8.94-31.65,17.68-47.19,26.98c-4,2.39-7.52,6.15-10.22,10
			c-4.44,6.32-2.54,11.41,5.48,15.56c-2.26-12.18,5.6-18.23,13.84-23.92c11.78-8.13,23.69-16.06,35.51-24.14
			C246.4,69.38,247.95,67.84,249.61,66.44z M252.34,69.07c-0.5-0.35-1-0.69-1.5-1.04c-1.4,1.77-2.91,3.46-4.18,5.31
			c-7.79,11.42-15.51,22.89-23.29,34.32c-5.83,8.56-11.98,16.67-24.49,14.65c4.41,8.4,9.64,10.08,16.45,5.34
			c2.94-2.05,5.56-4.82,7.64-7.75c3.85-5.43,7.41-11.09,10.69-16.87C240.04,91.79,246.13,80.39,252.34,69.07z M203.36,130.12
			c-5.45-5.39-10.32-10.22-16.16-16C189.29,124.02,194.89,129.44,203.36,130.12z"/>
		<path d="M259.62,67.33c-3.19-3.16-6-5.94-9.07-8.98c0.54-0.73,1.08-1.73,1.85-2.5c11.17-11.18,22.36-22.35,33.58-33.49
			c4.03-4,6.62-4,10.15-0.95c3.82,3.28,2.63,6.56-0.01,9.26C284.14,42.93,271.95,54.98,259.62,67.33z"/>
		<path class="st0" d="M244.44,74.24c-7.48,10.92-14.89,21.88-22.48,32.72c-2.47,3.53-5.14,7.01-8.22,9.99
			c-4.46,4.31-13.59,5.65-16.15,2.87c-2.43-2.64-0.91-12.4,3.23-16.16c4.9-4.46,10.26-8.47,15.69-12.29
			c8.83-6.22,17.88-12.12,26.84-18.16C243.71,73.55,244.07,73.9,244.44,74.24z"/>
		<path class="st0" d="M249.61,66.44c-1.65,1.39-3.2,2.94-4.98,4.15c-11.82,8.08-23.73,16.01-35.51,24.14
			c-8.24,5.68-16.1,11.74-13.84,23.92c-8.02-4.15-9.92-9.24-5.48-15.56c2.7-3.86,6.22-7.61,10.22-10
			c15.55-9.3,31.43-18.05,47.19-26.98c0.51-0.29,1.12-0.42,1.68-0.63C249.13,65.79,249.37,66.12,249.61,66.44z"/>
		<path class="st0" d="M252.34,69.07c-6.21,11.33-12.3,22.72-18.68,33.96c-3.28,5.79-6.84,11.45-10.69,16.87
			c-2.08,2.93-4.71,5.7-7.64,7.75c-6.81,4.75-12.03,3.06-16.45-5.34c12.51,2.02,18.66-6.09,24.49-14.65
			c7.78-11.43,15.5-22.9,23.29-34.32c1.27-1.86,2.78-3.55,4.18-5.31C251.34,68.37,251.84,68.72,252.34,69.07z"/>
		<path class="st0" d="M203.36,130.12c-8.47-0.67-14.07-6.1-16.16-16C193.04,119.9,197.92,124.72,203.36,130.12z"/>
	</g>
</g>
<text transform="matrix(1 0 0 1 45.0022 136.3309)" class="st1 st2">Shop</text>
</svg>
